<?xml version="1.0" encoding="UTF-8"?>
<!DOCTYPE svg PUBLIC "-//W3C//DTD SVG 1.1//EN" "http://www.w3.org/Graphics/SVG/1.1/DTD/svg11.dtd">
<!-- Creator: CorelDRAW 2020 (64-Bit) -->
<svg xmlns="http://www.w3.org/2000/svg" xml:space="preserve" width="100mm" height="100mm" version="1.1" style="shape-rendering:geometricPrecision; text-rendering:geometricPrecision; image-rendering:optimizeQuality; fill-rule:evenodd; clip-rule:evenodd"
viewBox="0 0 10000 10000"
 xmlns:xlink="http://www.w3.org/1999/xlink"
 xmlns:xodm="http://www.corel.com/coreldraw/odm/2003">
 <defs>
  <style type="text/css">
   <![CDATA[
    .str0 {stroke:#918160;stroke-width:70.56;stroke-miterlimit:22.9256}
    .fil1 {fill:none;fill-rule:nonzero}
    .fil0 {fill:#A19273}
    .fil2 {fill:#A19273;fill-rule:nonzero}
   ]]>
  </style>
 </defs>
 <g id="Ebene_x0020_1">
  <metadata id="CorelCorpID_0Corel-Layer"/>
  <path class="fil0" d="M4118.54 5826.45c33.95,20.64 222.3,147.09 247.59,179.04 -830.6,31.28 -1526.1,81.19 -2224.25,-376.04 -438.61,-286.85 -906.49,-876.54 -967.72,-1631.27 -117.79,-1428.92 1100.82,-2646.21 2585,-2390.65 817.94,141.1 1162.05,604.32 1560.7,992.32 111.14,107.84 208.99,209.66 318.14,319.47 82.53,83.2 243.58,197.01 253.57,387.36 9.99,189.68 -119.8,335.44 -260.9,378.04 -228.94,67.88 -357.4,-71.89 -447.91,-161.75 -218.3,-218.28 -421.95,-423.27 -636.27,-638.25 -198.99,-199.67 -398.66,-409.31 -768.03,-507.15 -1182.02,-314.81 -2100.48,776.03 -1815.63,1800.97 189.03,677.53 770.04,1078.2 1465.55,1079.52 133.78,0.67 135.77,51.26 208.99,121.81 56.56,55.24 99.15,99.82 155.05,155.73l326.12 290.85zm4441.89 -1593.33c-47.92,230.95 -309.49,628.94 -426.62,770.71 -597.67,721.46 -1500.15,1137.42 -2533.75,967.06 -1010.97,-166.4 -1501.49,-790.69 -2135.75,-1426.28 -127.11,-127.14 -534.45,-493.18 -573.7,-644.92 -79.87,-103.16 23.95,-486.52 359.39,-482.53 205.65,2.65 364.72,214.31 529.78,382.03l912.47 911.13c296.18,277.54 694.83,523.13 1270.54,547.09 1571.37,63.22 2602.95,-1699.83 1649.22,-3066.87 -485.18,-695.48 -1431.59,-994.98 -2269.51,-674.19 -116.49,44.6 -214.99,111.81 -314.15,148.41 -57.89,-30.62 -106.49,-72.54 -161.72,-108.47 -251.58,-165.72 -280.87,-155.08 -535.11,-280.2 35.28,-115.81 579.03,-390.02 668.88,-429.28 855.23,-373.37 1904.8,-218.31 2591,282.19 674.18,492.51 1126.1,1255.23 1131.41,2163.04 1.34,228.28 -63.22,809.98 -162.4,941.08l0.02 0zm-7830.2 -19.97c71.21,691.51 568.38,1410.31 1118.13,1784.36 790.01,536.42 1332.43,479.18 2423.94,479.18l1452.88 0c1188.01,0 1808.3,-208.98 2624.27,-1005.65l296.16 -370.69c28.63,-31.95 9.99,-13.33 35.28,-31.95 8.65,-51.93 91.18,-167.07 128.44,-234.28 143.11,-259.56 235.61,-513.81 305.51,-807.99 189.67,-798.65 32.6,-1700.47 -405.34,-2384.65 -859.89,-1342.42 -2596.97,-1890.84 -4083.81,-1138.76 -238.26,120.46 -704.14,429.94 -839.92,624.28 -117.14,3.33 -258.9,-21.29 -388,-21.97 -1147.42,-5.31 -2148.41,702.16 -2537.75,1753.73 -139.1,376.72 -214.97,909.81 -129.79,1354.39l0 0z"/>
  <g id="_2435976758688">
   <g>
    <path class="fil1 str0" d="M4006.72 6776.35l1869.27 0c283.41,0 512.54,229.14 512.54,512.54l0 1796.91c0,283.41 -229.13,512.54 -512.54,512.54l-1869.27 0c-283.4,0 -512.54,-229.13 -512.54,-512.54l0 -1796.91c0,-283.4 229.14,-512.54 512.54,-512.54z"/>
    <g>
     <path class="fil2" d="M4545.8 7514.41l0 1242.16c0,13.27 -6.03,19.3 -16.89,19.3l-236.37 0c-10.85,0 -15.68,-6.03 -15.68,-19.3l0 -1242.16c0,-10.85 6.03,-15.68 16.89,-15.68l235.16 0c7.24,-1.2 14.47,3.62 15.68,12.06 1.21,1.21 1.21,2.41 1.21,3.62zm697.05 1275.93c-89.24,1.2 -178.48,-16.89 -259.28,-54.27 -75.98,-34.98 -138.69,-92.86 -182.11,-164.02 -44.62,-73.56 -66.33,-165.21 -66.33,-274.96 -1.2,-89.24 21.71,-177.28 66.33,-254.46 45.83,-78.39 112.16,-143.51 191.75,-186.93 84.42,-47.03 185.73,-69.94 305.12,-69.94 6.03,0 14.47,0 25.32,1.2 10.86,1.21 22.92,1.21 37.39,2.41l0 -381.09c0,-8.44 3.62,-13.26 12.06,-13.26l244.81 0c6.03,-1.21 10.86,3.62 12.06,8.44l0 1150.51c0,21.7 1.21,45.82 2.41,72.35 2.42,25.33 3.62,49.45 4.83,69.95 0,8.44 -3.62,15.68 -12.06,19.3 -62.71,26.53 -129.04,45.82 -196.58,57.88 -60.3,10.86 -123.01,16.89 -185.72,16.89l0 0zm118.19 -241.2l0 -530.63c-10.86,-2.41 -21.71,-4.82 -32.56,-6.03 -13.27,-1.21 -26.53,-2.41 -39.8,-2.41 -47.03,0 -94.07,9.65 -136.28,31.35 -41,20.5 -75.97,50.65 -102.5,89.25 -26.54,38.59 -39.8,90.44 -39.8,153.16 -1.21,42.21 6.03,84.41 20.5,124.21 12.06,32.56 30.15,61.51 54.27,85.63 22.91,21.7 50.65,38.59 82.01,48.24 32.56,10.85 66.32,15.67 100.09,15.67 18.09,0 34.97,-1.2 50.65,-2.41 15.68,1.21 30.15,-1.2 43.42,-6.03l0 0z"/>
    </g>
   </g>
   <g>
    <path class="fil1 str0" d="M953.49 6776.35l1869.27 0c283.4,0 512.54,229.13 512.54,512.54l0 1796.91c0,283.41 -229.14,512.54 -512.54,512.54l-1869.27 0c-283.41,0 -512.54,-229.13 -512.54,-512.54l0 -1796.91c0,-283.41 229.13,-512.54 512.54,-512.54z"/>
    <g>
     <path class="fil2" d="M1092.18 8755.36l0 -1240.95c0,-8.44 3.61,-13.27 12.06,-13.27 20.5,0 39.79,0 67.53,-1.2 28.95,-1.21 59.09,-1.21 91.66,-2.42 32.56,-1.2 67.53,-1.2 104.92,-2.41 37.38,-1.2 73.56,-1.2 109.74,-1.2 98.89,0 180.9,12.06 248.43,37.38 60.3,20.5 115.78,54.27 161.6,98.89 38.6,38.59 68.74,85.63 88.04,137.48 18.09,50.65 27.74,102.51 27.74,156.78 0,103.72 -24.12,189.34 -72.36,256.87 -48.24,67.54 -115.77,118.19 -194.16,147.13 -82.01,30.15 -172.46,41.01 -271.35,41.01 -28.94,0 -48.24,0 -60.3,-1.21 -12.06,-1.2 -28.94,-1.2 -51.85,-1.2l-0.01 387.12c1.21,8.44 -4.82,15.67 -13.26,16.88l-233.96 0c-9.65,0 -14.47,-4.82 -14.47,-15.68l0 0zm262.9 -1021.46l0 405.21c16.88,1.2 32.56,2.41 47.03,2.41l63.92 0c47.03,0 94.07,-7.24 138.69,-21.71 38.59,-10.85 72.36,-33.77 98.89,-63.92 25.32,-30.15 37.38,-71.15 37.38,-124.21 1.21,-37.39 -8.44,-74.77 -27.73,-107.34 -20.51,-31.35 -49.45,-55.47 -84.42,-68.74 -44.62,-18.09 -92.86,-25.32 -142.31,-24.12 -31.35,0 -59.09,0 -82,1.21 -24.12,-1.21 -41.01,0 -49.45,1.21zm1401.35 331.64c-36.18,-19.3 -74.77,-32.56 -115.77,-41 -44.63,-9.65 -89.25,-15.68 -135.07,-15.68 -24.12,-1.21 -49.45,2.41 -72.36,8.44 -15.68,3.62 -28.95,12.06 -37.39,24.12 -6.03,9.65 -9.65,21.71 -9.65,32.56 0,10.86 4.83,21.71 12.06,31.36 10.86,13.26 25.33,24.12 41.01,32.56 27.73,14.47 56.68,27.74 85.62,39.8 65.12,21.7 127.83,51.85 185.72,88.03 39.8,25.33 72.36,59.1 95.27,100.1 19.3,38.59 28.95,80.8 27.74,124.22 1.21,56.68 -15.68,113.36 -47.03,160.39 -33.77,48.24 -80.8,85.63 -135.07,107.33 -59.09,25.33 -131.45,38.59 -218.28,38.59 -55.48,0 -109.75,-4.82 -164.02,-15.67 -42.21,-7.24 -84.42,-20.5 -123.01,-38.59 -8.44,-4.83 -14.47,-13.27 -13.26,-22.92l0 -209.84c0,-3.62 1.2,-8.44 4.82,-10.85 3.62,-2.41 7.24,-1.21 10.86,1.2 47.03,27.74 96.47,47.04 149.54,59.1 45.82,12.06 94.06,18.09 142.3,18.09 45.83,0 78.39,-6.03 100.1,-16.89 19.29,-8.44 32.56,-28.94 32.56,-50.65 0,-16.88 -9.65,-32.56 -28.94,-48.24 -19.3,-15.68 -59.1,-33.76 -118.19,-56.68 -61.5,-21.71 -118.19,-50.65 -171.25,-86.83 -37.38,-26.53 -68.74,-61.5 -91.65,-102.51 -19.3,-38.59 -28.95,-80.8 -27.74,-123.01 0,-51.85 14.47,-101.3 41,-145.92 30.15,-48.24 74.77,-86.83 126.63,-110.95 56.68,-28.94 127.83,-42.21 213.46,-42.21 49.44,0 100.1,3.62 149.54,10.85 36.18,4.83 71.15,14.48 103.71,27.74 4.83,1.21 9.65,6.03 12.06,10.85 1.21,4.83 2.42,9.65 2.42,14.48l0 196.57c0,4.83 -2.42,9.65 -6.03,12.06 -10.86,2.41 -16.89,2.41 -21.71,0l0 0z"/>
    </g>
   </g>
   <g>
    <path class="fil1 str0" d="M7065.67 6776.35l1869.27 0c283.41,0 512.55,229.13 512.55,512.54l0 1796.91c0,283.41 -229.14,512.54 -512.55,512.54l-1869.27 0c-283.4,0 -512.54,-229.13 -512.54,-512.54l0 -1796.91c0,-283.41 229.14,-512.54 512.54,-512.54z"/>
    <g>
     <path class="fil2" d="M7955.69 8469.54l-448.63 0 -91.65 283.41c-2.41,10.85 -12.06,18.09 -22.91,16.88l-226.73 0c-13.27,0 -16.88,-7.23 -13.27,-21.7l388.33 -1117.95c3.62,-12.06 7.24,-25.32 12.06,-39.8 4.82,-25.32 7.24,-51.85 7.24,-78.38 -1.21,-6.03 3.61,-12.06 9.64,-13.27l312.35 0c9.65,0 14.48,3.62 15.68,9.65l440.18 1242.16c3.62,13.26 0,19.29 -12.06,19.29l-252.05 0c-8.44,1.21 -16.88,-4.82 -19.29,-13.26l-98.89 -287.03zm-378.68 -244.81l306.32 0c-7.24,-25.33 -16.88,-55.48 -27.74,-86.83 -10.85,-32.56 -21.71,-67.54 -32.56,-103.72 -12.06,-37.38 -22.91,-73.56 -34.97,-110.95 -12.06,-37.38 -22.92,-72.35 -32.56,-107.33 -9.65,-33.76 -18.09,-65.12 -26.54,-94.06l-2.41 0c-10.85,51.85 -24.12,103.71 -41,155.57 -18.09,57.89 -36.18,118.18 -55.48,178.48 -16.88,61.51 -34.97,118.19 -53.06,168.84l0 0zm1023.88 -519.78c-39.8,1.21 -78.39,-14.47 -107.34,-42.21 -27.73,-30.15 -42.2,-69.94 -41,-110.95 -1.2,-41 14.47,-79.59 43.42,-107.33 28.94,-27.74 67.53,-42.21 107.33,-42.21 47.03,0 83.21,14.47 109.74,42.21 26.54,28.94 41.01,67.54 39.8,107.33 1.21,41.01 -13.26,80.8 -42.21,110.95 -27.74,28.95 -68.74,44.62 -109.74,42.21zm-135.07 1046.79l0 -928.6c0,-12.06 4.82,-16.88 15.68,-16.88l238.78 0c10.85,0 15.68,6.03 15.68,16.88l0 928.6c0,13.27 -4.83,19.3 -15.68,19.3l-236.37 0c-12.06,0 -18.09,-7.24 -18.09,-19.3l0 0z"/>
    </g>
   </g>
  </g>
 </g>
</svg>
