<?xml version="1.0" encoding="UTF-8"?>
<!DOCTYPE svg PUBLIC "-//W3C//DTD SVG 1.1//EN" "http://www.w3.org/Graphics/SVG/1.1/DTD/svg11.dtd">
<!-- Creator: CorelDRAW 2020 (64-Bit) -->
<svg xmlns="http://www.w3.org/2000/svg" xml:space="preserve" width="100mm" height="100mm" version="1.1" style="shape-rendering:geometricPrecision; text-rendering:geometricPrecision; image-rendering:optimizeQuality; fill-rule:evenodd; clip-rule:evenodd"
viewBox="0 0 10000 10000"
 xmlns:xlink="http://www.w3.org/1999/xlink"
 xmlns:xodm="http://www.corel.com/coreldraw/odm/2003">
 <defs>
  <style type="text/css">
   <![CDATA[
    .fil1 {fill:#685E4A;fill-rule:nonzero}
    .fil2 {fill:#918160;fill-rule:nonzero}
    .fil0 {fill:#A19273;fill-rule:nonzero}
    .fil3 {fill:white;fill-rule:nonzero}
   ]]>
  </style>
 </defs>
 <g id="Ebene_x0020_1">
  <metadata id="CorelCorpID_0Corel-Layer"/>
  <g id="_2435979794016">
   <g>
    <path class="fil0" d="M9351 2991.89c-0.07,-163.84 -35.11,-308.61 -105.97,-432.84 -69.61,-122.22 -173.85,-224.62 -313.67,-305.6 -1154.18,-665.5 -2309.49,-1328.98 -3463.3,-1995.16 -311.06,-179.58 -612.65,-173 -921.41,9.16 -459.4,270.89 -2759.45,1588.65 -3444.84,1985.63 -282.26,163.43 -419.61,413.51 -419.68,738.51 -0.44,1338.38 0,2676.75 -0.44,4015.13 0,160.25 33.62,302.24 101.36,424.6 69.64,125.88 175.34,231.1 318.39,313.91 685.42,396.98 2985.78,1714.63 3445.08,1985.63 308.89,182.26 610.48,188.78 921.65,9.16 1153.84,-666.22 2309.21,-1329.69 3463.56,-1995.2 143.05,-82.77 248.75,-188.06 318.39,-313.84 67.64,-122.39 101.32,-264.35 101.32,-424.63 0,0 0,-2676.05 -0.44,-4014.46l0 0zm0 0l0 0 0 0z"/>
   </g>
   <path class="fil1" d="M5029.83 4986.11l-4246.78 2445.21c69.64,125.88 175.34,231.1 318.39,313.91 685.42,396.98 2985.78,1714.63 3445.08,1985.63 308.89,182.26 610.48,188.78 921.65,9.16 1153.84,-666.22 2309.21,-1329.69 3463.56,-1995.2 143.05,-82.77 248.75,-188.06 318.39,-313.84l-4220.29 -2444.87z"/>
   <path class="fil2" d="M9351 2991.89c-0.07,-163.84 -35.11,-308.61 -105.97,-432.84l-4215.2 2427.1 4220.29 2444.83c67.64,-122.39 101.25,-264.35 101.32,-424.63 0,0 0,-2676.05 -0.44,-4014.46z"/>
   <g id="_2435979794064">
    <path class="fil3" d="M7530.19 4072.03l0 457.06 457.06 0 0 -457.06 228.53 0 0 457.06 457.06 0 0 228.53 -457.06 0 0 457.02 457.06 0 0 228.53 -457.06 0 0 457.06 -228.53 0 0 -457.06 -457.06 0 0 457.06 -228.53 0 0 -457.06 -457.02 0 0 -228.53 457.02 0 0 -457.02 -457.02 0 0 -228.53 457.02 0 0 -457.06 228.53 0zm457.06 685.55l-457.06 0 0 457.06 457.06 0 0 -457.06z"/>
    <path class="fil3" d="M5039.16 1776.62c1192.14,0 2232.96,647.43 2790.46,1609.78l-5.43 -9.26 -1402.66 807.61c-276.32,-467.88 -782.91,-783.66 -1364.09,-790.17l-18.31 -0.11c-886.21,0 -1604.67,718.46 -1604.67,1604.67 0,0.29 0,1.27 0,1.66 0,278.62 73.12,552.94 211.55,794.51 276.6,482.88 796.58,808.56 1393.06,808.56 600.17,0 1123.11,-329.82 1398.28,-817.85l-6.68 11.7 1400.52 811.34c-551.4,954.22 -1577.97,1599.64 -2756.23,1612.5l-35.89 0.2c-1195.91,0 -2239.68,-651.43 -2795.79,-1618.87 -271.47,-472.29 -426.8,-1019.82 -426.8,-1603.71 0,-1779.74 1442.75,-3222.56 3222.55,-3222.56l0.13 0z"/>
   </g>
  </g>
 </g>
</svg>
