<?xml version="1.0" encoding="UTF-8"?>
<!DOCTYPE svg PUBLIC "-//W3C//DTD SVG 1.1//EN" "http://www.w3.org/Graphics/SVG/1.1/DTD/svg11.dtd">
<!-- Creator: CorelDRAW 2020 (64-Bit) -->
<svg xmlns="http://www.w3.org/2000/svg" xml:space="preserve" width="100mm" height="100mm" version="1.1" style="shape-rendering:geometricPrecision; text-rendering:geometricPrecision; image-rendering:optimizeQuality; fill-rule:evenodd; clip-rule:evenodd"
viewBox="0 0 10000 10000"
 xmlns:xlink="http://www.w3.org/1999/xlink"
 xmlns:xodm="http://www.corel.com/coreldraw/odm/2003">
 <defs>
  <style type="text/css">
   <![CDATA[
    .fil1 {fill:#685E4A;fill-rule:nonzero}
    .fil2 {fill:#918160;fill-rule:nonzero}
    .fil0 {fill:#A19273;fill-rule:nonzero}
    .fil3 {fill:white;fill-rule:nonzero}
   ]]>
  </style>
 </defs>
 <g id="Ebene_x0020_1">
  <metadata id="CorelCorpID_0Corel-Layer"/>
  <g id="_2436026699424">
   <g>
    <path class="fil0" d="M9393.16 2984.08c-0.07,-164.22 -35.19,-309.33 -106.22,-433.87 -69.76,-122.46 -174.25,-225.11 -314.39,-306.26 -1156.83,-667.04 -2314.78,-1332.03 -3471.24,-1999.75 -311.77,-179.99 -614.06,-173.43 -923.52,9.15 -460.46,271.55 -2765.79,1592.33 -3452.75,1990.22 -282.91,163.78 -420.57,414.42 -420.64,740.2 -0.44,1341.45 0,2682.86 -0.44,4024.34 0.07,160.62 33.69,302.91 101.59,425.58 69.8,126.17 175.74,231.63 319.12,314.63 686.99,397.89 2992.63,1718.56 3452.98,1990.19 309.6,182.67 611.89,189.2 923.76,9.14 1156.49,-667.75 2314.51,-1332.71 3471.51,-1999.74 143.38,-82.96 249.32,-188.49 319.12,-314.56 67.8,-122.67 101.49,-264.96 101.56,-425.61 0,0 0,-2682.18 -0.44,-4023.66l0 0zm0 0l0 0 0 0z"/>
   </g>
   <g>
    <path class="fil1" d="M5062.07 4982.87l-4256.52 2450.82c69.8,126.17 175.74,231.63 319.12,314.63 686.99,397.89 2992.63,1718.56 3452.98,1990.19 309.6,182.67 611.89,189.2 923.76,9.14 1156.49,-667.75 2314.51,-1332.71 3471.51,-1999.74 143.38,-82.96 249.32,-188.49 319.12,-314.56l-4229.96 -2450.48 -0.01 0zm0 0l0 0 0 0z"/>
   </g>
   <g>
    <path class="fil1" d="M3801.34 5708.83c247.69,432.4 713.31,724.05 1247.44,724.05 537.43,0 1005.7,-295.35 1252.13,-732.38l-1238.84 -717.63 -1260.73 725.96 0 0zm0 0l0 0 0 0z"/>
   </g>
   <g>
    <path class="fil2" d="M9393.16 2984.08c-0.07,-164.22 -35.19,-309.33 -106.22,-433.87l-4224.87 2432.66 4229.97 2450.48c67.8,-122.67 101.49,-264.96 101.56,-425.61 0,0 0,-2682.18 -0.45,-4023.66l0.01 0zm0 0l0 0 0 0z"/>
   </g>
   <g>
    <path class="fil3" d="M9160.57 5158.04l-330.55 0 0 330.61 -330.61 0 0 -330.61 -330.5 0 0 -330.51 330.5 0 0 -330.54 330.61 0 0 330.54 330.55 0 0 330.51 0 0zm-1206.13 0l-330.51 0 0 330.61 -330.54 0 0 -330.61 -330.55 0 0 -330.51 330.55 0 0 -330.54 330.54 0 0 330.54 330.51 0 0 330.51z"/>
   </g>
   <g>
    <path class="fil3" d="M6300.91 5700.5c-246.43,437.03 -714.7,732.38 -1252.13,732.38 -534.13,0 -999.75,-291.65 -1247.44,-724.05 -124.04,-216.29 -189.51,-461.94 -189.51,-711.43 0,-0.35 0,-1.05 0,-1.39 0,-793.58 643.37,-1436.92 1436.95,-1436.92 530.7,0 993.87,288.01 1242.78,715.99l1255.97 -723.23c-499.21,-861.75 -1431.24,-1441.51 -2498.75,-1441.51 -1593.76,0 -2885.7,1291.98 -2885.7,2885.67 0,522.84 139.09,1013.14 382.19,1436.06 497.95,866.31 1432.63,1449.64 2503.51,1449.64 1072.85,0 2008.99,-585.68 2506.23,-1454.53l-1254.1 -726.6 0 -0.08zm0 0l0 0 0 0z"/>
   </g>
  </g>
 </g>
</svg>
