<?xml version="1.0" encoding="UTF-8"?>
<!DOCTYPE svg PUBLIC "-//W3C//DTD SVG 1.1//EN" "http://www.w3.org/Graphics/SVG/1.1/DTD/svg11.dtd">
<!-- Creator: CorelDRAW 2020 (64-Bit) -->
<svg xmlns="http://www.w3.org/2000/svg" xml:space="preserve" width="100mm" height="100mm" version="1.1" style="shape-rendering:geometricPrecision; text-rendering:geometricPrecision; image-rendering:optimizeQuality; fill-rule:evenodd; clip-rule:evenodd"
viewBox="0 0 10000 10000"
 xmlns:xlink="http://www.w3.org/1999/xlink"
 xmlns:xodm="http://www.corel.com/coreldraw/odm/2003">
 <defs>
  <style type="text/css">
   <![CDATA[
    .fil0 {fill:#685E4A;fill-rule:nonzero}
    .fil1 {fill:#918160;fill-rule:nonzero}
    .fil2 {fill:#A19273;fill-rule:nonzero}
    .fil3 {fill:white;fill-rule:nonzero}
   ]]>
  </style>
 </defs>
 <g id="Ebene_x0020_1">
  <metadata id="CorelCorpID_0Corel-Layer"/>
  <g id="_2436033864656">
   <path class="fil0" d="M9414.89 3001.04c0.1,-6.24 0.21,-12.68 0.21,-19.02 0,-144.94 -36.55,-287.98 -106.07,-415.07 -75.15,-128.4 -183.84,-234.36 -314.17,-306.25 -1155.93,-667.39 -2312.23,-1333.84 -3468.92,-1999.37 -311.46,-180.09 -613.35,-173.7 -922.82,9.18 -460.01,270.34 -2763.67,1591.68 -3450.1,1989.8 -282.71,163.72 -420.08,414.49 -420.08,740.33l0 4025.12c-0.06,5.53 -0.17,11.48 -0.17,17.1 0,142.43 35.13,282.94 101.99,408.6 75.26,132.23 185.99,241.45 319.45,314.67 686.42,399.32 2990.48,1719.06 3450.49,1990.6 309.48,182.88 611.36,189.27 923.23,9.18 1155.63,-667.68 2311.92,-1334.42 3468.88,-2000.22 133.47,-73.18 244.2,-182.4 319.43,-314.65 66.88,-125.64 102.01,-266.15 102.01,-408.58 0,-5.62 -0.1,-11.57 -0.21,-17.09l0.05 -4024.33 -3.2 0z"/>
   <path class="fil1" d="M9415.69 7025.76c0.07,5.72 0.18,11.76 0.18,17.58 0,142.31 -35.05,282.61 -101.97,408.09 -17.06,31.09 -36.54,61.16 -57.91,89.42l-4182.07 -2527.65 3920.89 -2752.49c130.15,71.89 238.84,177.86 313.9,306.24 69.7,126.98 106.4,269.88 106.4,414.79 0,6.41 -0.11,13.04 -0.21,19.35 0.8,1341.7 0.8,4024.71 0.8,4024.71l-0.01 -0.04z"/>
   <path class="fil2" d="M9308.67 2566.98l-8475.1 4884.45c-66.34,-125.19 -101.22,-265.15 -101.22,-406.92 0,-6.04 0.11,-12.4 0.21,-18.34l-0.02 -4025.53c0,-325.84 137.77,-576.61 420.08,-740.33 686.83,-398.12 2990.49,-1719.46 3450.9,-1990.6 308.67,-182.88 610.96,-189.27 922.42,-9.18 1155.63,667.66 2311.92,1334.38 3468.87,2000.18 130.15,71.89 238.84,177.86 313.9,306.24l-0.04 0.03z"/>
   <path class="fil3" d="M5241.63 6639.22c-0.68,0 -1.65,0 -2.23,0 -580.38,0 -1115.05,-315.78 -1395.41,-823.79 -14.09,-25.02 -27.39,-50.58 -39.9,-76.67 -104.7,-216.45 -159.42,-454.38 -159.42,-695.04 0,-880.68 714.2,-1594.87 1594.87,-1594.87 476.85,0 929.16,213.79 1231.93,581.99 21.17,25.55 39.93,52.31 61.1,79.86 9.58,13.18 19.17,26.35 27.95,39.93l1400.41 -806.62c-34.04,-54.81 -69.7,-108.04 -106.97,-159.68 -19.57,-27.55 -39.93,-53.91 -59.1,-79.87 -603.64,-784.36 -1538.09,-1244.38 -2528.25,-1244.38 -1761.79,0 -3190.54,1428.75 -3190.54,3190.54 0,514.16 124.65,1020.93 362.25,1476.66 13.58,25.56 27.56,50.72 39.93,75.87 566.54,999.41 1627.33,1617.66 2776.16,1617.66 1088.84,0 2103.27,-555.53 2689.18,-1472.95l-1369.26 -827.79c-294.43,448.52 -795.25,719.15 -1331.84,719.15 -0.2,0 -0.58,0 -0.78,0l-0.08 0z"/>
  </g>
 </g>
</svg>
