<?xml version="1.0" encoding="UTF-8"?>
<!DOCTYPE svg PUBLIC "-//W3C//DTD SVG 1.1//EN" "http://www.w3.org/Graphics/SVG/1.1/DTD/svg11.dtd">
<!-- Creator: CorelDRAW 2020 (64-Bit) -->
<svg xmlns="http://www.w3.org/2000/svg" xml:space="preserve" width="180.622mm" height="180.622mm" version="1.1" style="shape-rendering:geometricPrecision; text-rendering:geometricPrecision; image-rendering:optimizeQuality; fill-rule:evenodd; clip-rule:evenodd"
viewBox="0 0 18062.22 18062.22"
 xmlns:xlink="http://www.w3.org/1999/xlink"
 xmlns:xodm="http://www.corel.com/coreldraw/odm/2003">
 <defs>
  <style type="text/css">
   <![CDATA[
    .fil1 {fill:#735F3F;fill-rule:nonzero}
    .fil0 {fill:#857151;fill-rule:nonzero}
    .fil2 {fill:#918160;fill-rule:nonzero}
    .fil3 {fill:#A19273;fill-rule:nonzero}
   ]]>
  </style>
 </defs>
 <g id="Ebene_x0020_1">
  <metadata id="CorelCorpID_0Corel-Layer"/>
  <g id="_2081333637968">
   <path class="fil0" d="M5448.6 15204.68l-1099.52 -3317.46c124.02,-130.19 248.58,-266.47 373.63,-408.86l99.8 31.83c104.36,33.52 187.89,60.77 251.43,81.93l223.78 76.02c64.34,21.91 123.28,42.35 176.7,61.22 55.1,19.43 117.19,42.19 186.18,68.23 66.28,25.03 152.14,58.14 257.31,99.21 108.81,42.48 190.51,74.73 245.34,96.79 43.3,17.41 79.12,32.06 107.47,43.91l727.15 2223.54 -943.7 0 687.81 -2024.95 87.89 36.56 341.52 141.03c104.15,42.89 173.8,71.36 209.85,85.8l0.11 -0.27c93.71,39.6 189.96,79.84 288.29,120.52 59.32,24.54 183.24,75.34 378.77,155.22 78.91,32.23 33.57,13.82 160.97,66.06l-803.04 2363.67 -1957.74 0zm-1766.47 -5329.78l-1501.16 -4529.36 1901.42 0 1133.44 3466.01c-260.42,431.38 -532.11,839.39 -815.06,1223.97l-160.27 -44.28c-26.85,-6.7 12.17,3.28 -58.51,-13.83l-95.61 -23.07 -1 0c-42.63,-10.21 -77.08,-18.26 -103.1,-24.03 -30.53,-6.76 -56.22,-12.07 -76.93,-15.83 -140.23,-25.55 3.85,-0.29 -65.53,-12.55l-93.19 -16.13c-23.93,-4.16 -45.44,-7.79 -64.5,-10.9zm1998.28 357.36l71.93 219.96 -182.21 -60.71c36.89,-52.6 73.65,-105.69 110.28,-159.25zm1481.68 767.08l1838.85 -5413.96c81.49,-76.45 161.72,-156.4 240.65,-239.84l1530.93 0 2943.61 8915.5 -915.42 0 2985.89 -8915.5 1746.47 0 -3267.6 9859.14 -1943.66 0 -626.3 -1872.29c9.07,-7.61 18.05,-15.38 26.92,-23.3l86.86 -77.57 0 -6.87c21.2,-19.07 39.95,-37.13 56.17,-54.13 26.61,-27.89 48.74,-55.05 66.28,-81.44l-0.24 -0.15c17.8,-26.77 33.39,-55.59 46.8,-86.47 13.29,-30.57 24.3,-60.97 32.79,-91.1 16.03,-54.2 24.02,-105.07 24.02,-152.46 0,-66.49 -15.35,-127.9 -46.16,-184.32 -30.13,-55.23 -71.08,-99.67 -122.72,-133.24 -47.5,-30.88 -100.63,-50.62 -159.32,-59.01 -35.65,-5.06 -68.94,-7.62 -99.77,-7.62 -33.18,0 -66.35,2.56 -99.41,7.62 -15.5,2.38 -38.21,6.17 -68.87,11.47l-53.97 9.97 -1753.25 -5241.31 507.1 0 -1508.91 4441.17c-189.44,-76.91 -396.65,-161.77 -621.52,-254.61 -94.26,-39.86 -188.4,-79.26 -282.25,-118.12 -54.4,-22.54 -176.58,-72.66 -363.86,-149.26l-200.11 -82.3z"/>
   <path class="fil1" d="M5448.6 15204.68l-13.36 -40.29 956.06 -2758.18 606.57 1854.83 -943.7 0 687.81 -2024.95 87.89 36.56 341.52 141.03c104.15,42.89 173.8,71.36 209.85,85.8l0.11 -0.27c93.71,39.6 189.96,79.84 288.29,120.52 59.32,24.54 183.24,75.34 378.77,155.22 78.91,32.23 33.57,13.82 160.97,66.06l-803.04 2363.67 -1957.74 0zm1713.49 -4205.34l1838.85 -5413.96c81.49,-76.45 161.72,-156.4 240.65,-239.84l1530.93 0 2943.61 8915.5 -915.42 0 2985.89 -8915.5 1746.47 0 -3267.6 9859.14 -1943.66 0 -626.3 -1872.29c9.07,-7.61 18.05,-15.38 26.92,-23.3l86.86 -77.57 0 -6.87c21.2,-19.07 39.95,-37.13 56.17,-54.13 26.61,-27.89 48.74,-55.05 66.28,-81.44l-0.24 -0.15c17.8,-26.77 33.39,-55.59 46.8,-86.47 13.29,-30.57 24.3,-60.97 32.79,-91.1 16.03,-54.2 24.02,-105.07 24.02,-152.46 0,-66.49 -15.35,-127.9 -46.16,-184.32 -30.13,-55.23 -71.08,-99.67 -122.72,-133.24 -47.5,-30.88 -100.63,-50.62 -159.32,-59.01 -35.65,-5.06 -68.94,-7.62 -99.77,-7.62 -33.18,0 -66.35,2.56 -99.41,7.62 -15.5,2.38 -38.21,6.17 -68.87,11.47l-53.97 9.97 -1753.25 -5241.31 507.1 0 -1508.91 4441.17c-189.44,-76.91 -396.65,-161.77 -621.52,-254.61 -94.26,-39.86 -188.4,-79.26 -282.25,-118.12 -54.4,-22.54 -176.58,-72.66 -363.86,-149.26l-200.11 -82.3z"/>
   <path class="fil2" d="M3224.2 10126.58c67.6,0 136.72,1.57 207.37,4.63 70.64,3.04 132.09,7.68 184.33,13.82 52.19,6.16 113.64,15.36 184.28,27.65 70.64,12.3 122.91,21.5 156.7,27.66 33.79,6.13 89.1,18.43 165.88,36.83 76.8,18.45 127.47,30.75 152.08,36.91 24.54,6.15 79.83,21.49 165.88,46.05 86,24.59 138.25,39.95 156.7,46.09 774.15,-1026.04 1468.41,-2224.16 2082.82,-3594.27 -129.05,42.99 -279.59,86.03 -451.63,129.04 -171.98,36.84 -285.69,-10.79 -340.98,-142.88 -55.3,-132.09 -18.45,-268.79 110.6,-410.08 73.74,-73.76 153.58,-119.85 239.64,-138.25l239.58 -55.3c221.19,-55.29 399.37,-107.54 534.57,-156.69 49.15,-147.44 92.14,-254.99 128.99,-322.52 804.9,-2021.43 1526.79,-3330.11 2165.81,-3926.07 288.74,-251.94 549.87,-368.67 783.36,-350.23 85.98,12.31 162.83,39.95 230.38,82.96 159.74,98.27 251.94,281.11 276.47,548.33 24.62,267.29 -9.19,554.54 -101.33,861.72 -141.35,509.98 -367.1,998.39 -677.38,1465.37 -310.28,466.91 -655.88,866.29 -1036.81,1198.07 -380.93,331.78 -786.45,608.25 -1216.52,829.44 -700.47,1640.45 -1471.53,3032.12 -2313.26,4174.89 208.87,67.6 396.26,129.05 562.16,184.35 165.88,55.29 342.56,119.79 529.93,193.54 187.4,73.68 336.42,133.61 447.01,179.71 110.6,46.04 301.03,124.41 571.37,235.01 270.37,110.59 485.42,199.69 645.16,267.23 743.4,307.23 1265.67,516.12 1566.7,626.71 497.66,190.44 909.34,313.33 1234.96,368.63 294.95,61.45 497.68,92.2 608.27,92.2 12.3,0 42.99,-4.62 92.14,-13.82 49.15,-9.25 93.72,-16.93 133.67,-23.09 39.89,-6.14 81.36,-6.14 124.43,0 42.99,6.16 73.68,26.13 92.14,59.92 18.45,33.81 18.45,81.42 0,142.87 -12.3,43.01 -27.66,78.32 -46.11,105.97 -18.4,27.66 -50.67,61.45 -96.76,101.4 -46.05,39.89 -69.12,62.96 -69.12,69.12 -172.04,153.58 -393.22,230.39 -663.56,230.39 -258.04,0 -629.77,-70.65 -1115.13,-211.99 -208.89,-61.45 -408.58,-125.95 -599.07,-193.54 -190.44,-67.6 -337.92,-122.9 -442.38,-165.89 -104.43,-43 -299.49,-122.89 -585.18,-239.59 -285.73,-116.73 -508.43,-208.94 -668.18,-276.47 -92.15,-36.91 -274.97,-112.17 -548.34,-225.83 -273.44,-113.63 -445.47,-185.85 -516.12,-216.55 -70.64,-30.75 -204.27,-84.53 -400.9,-161.31 -196.59,-76.8 -347.14,-133.63 -451.57,-170.47 -104.44,-36.9 -239.64,-82.95 -405.52,-138.24 -165.9,-55.31 -337.94,-110.59 -516.08,-165.9 -596.01,694.27 -1179.67,1247.24 -1751.09,1658.9 -577.51,423.94 -1112.07,635.92 -1603.59,635.92 -393.23,0 -671.24,-124.43 -834.03,-373.25 -162.83,-248.84 -188.97,-569.9 -78.37,-963.12 67.6,-276.49 202.78,-571.37 405.52,-884.75 233.5,-362.47 560.64,-646.62 981.52,-852.47 420.88,-205.83 877.07,-308.76 1368.59,-308.76zm6856.78 -7704.62c6.15,-104.44 1.52,-184.34 -13.82,-239.64 -15.41,-55.29 -32.29,-85.98 -50.73,-92.14 -18.39,-6.16 -43.01,-12.3 -73.7,-18.45 -12.3,0 -26.11,1.57 -41.47,4.63 -15.39,3.04 -27.65,7.66 -36.91,13.82 -9.18,6.16 -21.49,15.36 -36.83,27.65 -15.36,12.3 -27.65,23.02 -36.85,32.27 -9.26,9.2 -19.98,19.98 -32.27,32.22 -12.3,12.3 -18.46,21.49 -18.46,27.65 -208.89,202.79 -482.26,599.07 -820.2,1188.87 -307.23,540.67 -645.16,1256.48 -1013.78,2147.38 227.33,-153.58 466.97,-336.41 718.85,-548.35 251.88,-211.98 439.33,-394.8 562.17,-548.38 393.22,-503.82 663.56,-1029.15 811.06,-1575.96 42.99,-165.88 70.64,-316.37 82.94,-451.57zm-9123.93 9750.6c-61.47,215.03 -58.35,382.5 9.18,502.3 67.6,119.79 202.8,179.71 405.54,179.71 208.89,0 460.82,-70.64 755.69,-211.98 608.26,-301.03 1253.44,-841.7 1935.38,-1622.01 -337.92,-86.04 -691.2,-150.55 -1059.83,-193.54 -387.07,-43.04 -732.68,0 -1036.81,128.99 -304.12,129.05 -539.15,319.54 -705.03,571.42 -153.58,233.49 -254.99,448.52 -304.12,645.11z"/>
   <path class="fil3" d="M3224.2 10126.58c67.6,0 136.72,1.57 207.37,4.63 70.64,3.04 132.09,7.68 184.33,13.82 52.19,6.16 113.64,15.36 184.28,27.65 70.64,12.3 122.91,21.5 156.7,27.66 33.79,6.13 89.1,18.43 165.88,36.83 76.8,18.45 127.47,30.75 152.08,36.91 24.54,6.15 79.83,21.49 165.88,46.05 86,24.59 138.25,39.95 156.7,46.09 774.15,-1026.04 1468.41,-2224.16 2082.82,-3594.27 -129.05,42.99 -279.59,86.03 -451.63,129.04 -171.98,36.84 -285.69,-10.79 -340.98,-142.88 -55.3,-132.09 -18.45,-268.79 110.6,-410.08 73.74,-73.76 153.58,-119.85 239.64,-138.25l239.58 -55.3c221.19,-55.29 399.37,-107.54 534.57,-156.69 49.15,-147.44 92.14,-254.99 128.99,-322.52 804.9,-2021.43 1526.79,-3330.11 2165.81,-3926.07 288.74,-251.94 549.87,-368.67 783.36,-350.23 24.92,3.57 49.09,8.43 72.47,14.57l-228.22 658.41c-10.14,0.55 -21.19,2.03 -33.17,4.41 -15.39,3.04 -27.65,7.66 -36.91,13.82 -9.18,6.16 -21.49,15.36 -36.83,27.65 -15.36,12.3 -27.65,23.02 -36.85,32.27 -9.26,9.2 -19.98,19.98 -32.27,32.22 -12.3,12.3 -18.46,21.49 -18.46,27.65 -208.89,202.79 -482.26,599.07 -820.2,1188.87 -307.23,540.67 -645.16,1256.48 -1013.78,2147.38 227.33,-153.58 466.97,-336.41 718.85,-548.35 176.88,-148.85 321.98,-283.32 435.25,-403.39l-356.18 1027.48c-358.27,302.39 -737.9,556.67 -1138.89,762.9 -700.47,1640.45 -1471.53,3032.12 -2313.26,4174.89 208.87,67.6 396.26,129.05 562.16,184.35 165.88,55.29 342.56,119.79 529.93,193.54 187.4,73.68 336.42,133.61 447.01,179.71l7.17 2.99 -257.53 742.94 -30.75 -13.25c-70.64,-30.75 -204.27,-84.53 -400.9,-161.31 -196.59,-76.8 -347.14,-133.63 -451.57,-170.47 -104.44,-36.9 -239.64,-82.95 -405.52,-138.24 -165.9,-55.31 -337.94,-110.59 -516.08,-165.9 -596.01,694.27 -1179.67,1247.24 -1751.09,1658.9 -577.51,423.94 -1112.07,635.92 -1603.59,635.92 -393.23,0 -671.24,-124.43 -834.03,-373.25 -162.83,-248.84 -188.97,-569.9 -78.37,-963.12 67.6,-276.49 202.78,-571.37 405.52,-884.75 233.5,-362.47 560.64,-646.62 981.52,-852.47 420.88,-205.83 877.07,-308.76 1368.59,-308.76zm-2267.15 2045.98c-61.47,215.03 -58.35,382.5 9.18,502.3 67.6,119.79 202.8,179.71 405.54,179.71 208.89,0 460.82,-70.64 755.69,-211.98 608.26,-301.03 1253.44,-841.7 1935.38,-1622.01 -337.92,-86.04 -691.2,-150.55 -1059.83,-193.54 -387.07,-43.04 -732.68,0 -1036.81,128.99 -304.12,129.05 -539.15,319.54 -705.03,571.42 -153.58,233.49 -254.99,448.52 -304.12,645.11z"/>
  </g>
 </g>
</svg>
