<?xml version="1.0" encoding="UTF-8"?>
<!DOCTYPE svg PUBLIC "-//W3C//DTD SVG 1.1//EN" "http://www.w3.org/Graphics/SVG/1.1/DTD/svg11.dtd">
<!-- Creator: CorelDRAW 2020 (64-Bit) -->
<svg xmlns="http://www.w3.org/2000/svg" xml:space="preserve" width="100mm" height="100mm" version="1.1" style="shape-rendering:geometricPrecision; text-rendering:geometricPrecision; image-rendering:optimizeQuality; fill-rule:evenodd; clip-rule:evenodd"
viewBox="0 0 10000 10000"
 xmlns:xlink="http://www.w3.org/1999/xlink"
 xmlns:xodm="http://www.corel.com/coreldraw/odm/2003">
 <defs>
  <style type="text/css">
   <![CDATA[
    .fil1 {fill:#918160;fill-rule:nonzero}
    .fil0 {fill:#A19273;fill-rule:nonzero}
   ]]>
  </style>
 </defs>
 <g id="Ebene_x0020_1">
  <metadata id="CorelCorpID_0Corel-Layer"/>
  <g id="_2436102657152">
   <g id="_2435963476400">
    <g>
     <path class="fil0" d="M4986.99 173.25c-2722.33,0 -4929.85,2207.13 -4929.85,4929.84 0,2178.17 1412.55,4026.08 3371.34,4677.95 246.37,45.62 336.84,-106.95 336.84,-237.16 0,-117.54 -4.6,-505.92 -6.69,-917.84 -1371.52,298.21 -1660.92,-581.66 -1660.92,-581.66 -224.25,-569.83 -547.37,-721.32 -547.37,-721.32 -447.27,-305.98 33.72,-299.72 33.72,-299.72 495.04,34.79 755.72,508.04 755.72,508.04 439.69,753.68 1153.27,535.77 1434.59,409.84 44.23,-318.67 172.02,-536.11 312.98,-659.23 -1094.96,-124.68 -2246.07,-547.4 -2246.07,-2436.36 0,-538.2 192.59,-978 507.97,-1323.23 -51.19,-124.2 -219.92,-625.59 47.76,-1304.64 0,0 413.97,-132.51 1356.05,505.34 393.22,-109.27 814.96,-164.02 1233.92,-165.87 418.97,1.85 841.03,56.6 1235,165.87 940.97,-637.85 1354.36,-505.34 1354.36,-505.34 268.33,679.05 99.52,1180.44 48.33,1304.64 316.09,345.23 507.35,784.98 507.35,1323.23 0,1893.45 -1153.27,2310.4 -2251.01,2432.43 176.8,152.99 334.36,453.02 334.36,912.93 0,659.61 -5.72,1190.5 -5.72,1352.89 0,131.18 88.74,284.92 338.66,236.5 1957.71,-652.61 3368.48,-2499.85 3368.48,-4677.29 0,-2722.71 -2207.21,-4929.84 -4929.8,-4929.84z"/>
     <g>
      <path class="fil1" d="M1903.53 7195.93c-10.82,24.47 -49.41,31.83 -84.47,15.05 -35.77,-16.09 -55.87,-49.49 -44.27,-74.09 10.63,-25.2 49.21,-32.25 84.9,-15.31 35.84,16.05 56.25,49.77 43.84,74.35l0 0zm242.51 216.37c-23.52,21.81 -69.48,11.67 -100.69,-22.77 -32.24,-34.38 -38.27,-80.31 -14.41,-102.47 24.24,-21.76 68.81,-11.59 101.14,22.82 32.24,34.75 38.51,80.42 13.92,102.45l0.04 -0.03zm166.37 276.83c-30.24,20.99 -79.65,1.31 -110.16,-42.53 -30.19,-43.8 -30.19,-96.39 0.66,-117.46 30.63,-21.07 79.26,-2.12 110.19,41.37 30.16,44.58 30.16,97.16 -0.73,118.66l0.04 -0.04zm281.32 320.64c-27.03,29.77 -84.56,21.8 -126.71,-18.86 -43.06,-39.76 -55.09,-96.17 -27.99,-125.97 27.34,-29.86 85.22,-21.46 127.67,18.87 42.8,39.66 55.87,96.5 27.06,125.96l-0.03 0zm363.59 108.26c-11.87,38.58 -67.31,56.14 -123.15,39.75 -55.74,-16.89 -92.24,-62.14 -80.99,-101.15 11.6,-38.86 67.27,-57.14 123.52,-39.59 55.68,16.82 92.26,61.71 80.67,100.99l-0.05 0zm413.86 45.89c1.39,40.68 -45.98,74.4 -104.59,75.13 -58.96,1.27 -106.63,-31.63 -107.25,-71.6 0,-41.07 46.28,-74.47 105.21,-75.44 58.61,-1.16 106.63,31.51 106.63,71.92l0 -0.01zm406.51 -15.58c7.04,39.67 -33.71,80.42 -91.9,91.25 -57.23,10.44 -110.2,-14.04 -117.5,-53.36 -7.11,-40.68 34.41,-81.39 91.51,-91.94 58.31,-10.13 110.47,13.72 117.9,54.05l-0.01 0zm0 0l0 0 0 0z"/>
     </g>
    </g>
   </g>
  </g>
 </g>
</svg>
