<?xml version="1.0" encoding="UTF-8"?>
<!DOCTYPE svg PUBLIC "-//W3C//DTD SVG 1.1//EN" "http://www.w3.org/Graphics/SVG/1.1/DTD/svg11.dtd">
<!-- Creator: CorelDRAW 2020 (64-Bit) -->
<svg xmlns="http://www.w3.org/2000/svg" xml:space="preserve" width="100mm" height="100mm" version="1.1" style="shape-rendering:geometricPrecision; text-rendering:geometricPrecision; image-rendering:optimizeQuality; fill-rule:evenodd; clip-rule:evenodd"
viewBox="0 0 10000 10000"
 xmlns:xlink="http://www.w3.org/1999/xlink"
 xmlns:xodm="http://www.corel.com/coreldraw/odm/2003">
 <defs>
  <style type="text/css">
   <![CDATA[
    .fil0 {fill:#918160;fill-rule:nonzero}
    .fil1 {fill:#A19273;fill-rule:nonzero}
    .fil2 {fill:white;fill-rule:nonzero}
   ]]>
  </style>
 </defs>
 <g id="Ebene_x0020_1">
  <metadata id="CorelCorpID_0Corel-Layer"/>
  <g id="_2436026250672">
   <polygon class="fil0" points="1468.27,8907.2 751.73,150.11 9309.1,167.71 8551.43,8907.2 5062.71,9917.38 "/>
   <polygon class="fil1" points="5062.71,9071.65 5062.71,984.11 8586.69,995.84 7958.28,8231.72 "/>
   <path class="fil2" d="M4685.36 1944.4l-931.65 0 0 5382.86 -724.62 -138.02 0 -724.62 -862.63 -138.02 0 1621.76 2518.9 655.6 0 -6659.56zm698.87 0l2579.15 0 -172.52 1031.71 -1422.04 0 0 1693.05 1422.04 0 -172.53 3417.22 -2234.1 517.58 0 -1069.67 1509.48 -517.58 87.17 -1414.73 -1596.65 231.19 0 -3888.77z"/>
  </g>
 </g>
</svg>
