<?xml version="1.0" encoding="UTF-8"?>
<!DOCTYPE svg PUBLIC "-//W3C//DTD SVG 1.1//EN" "http://www.w3.org/Graphics/SVG/1.1/DTD/svg11.dtd">
<!-- Creator: CorelDRAW 2020 (64-Bit) -->
<svg xmlns="http://www.w3.org/2000/svg" xml:space="preserve" width="100mm" height="100mm" version="1.1" style="shape-rendering:geometricPrecision; text-rendering:geometricPrecision; image-rendering:optimizeQuality; fill-rule:evenodd; clip-rule:evenodd"
viewBox="0 0 10000 10000"
 xmlns:xlink="http://www.w3.org/1999/xlink"
 xmlns:xodm="http://www.corel.com/coreldraw/odm/2003">
 <defs>
  <style type="text/css">
   <![CDATA[
    .fil0 {fill:#685E4A;fill-rule:nonzero}
    .fil1 {fill:#A19273;fill-rule:nonzero}
   ]]>
  </style>
 </defs>
 <g id="Ebene_x0020_1">
  <metadata id="CorelCorpID_0Corel-Layer"/>
  <g id="_2436039244464">
   <g>
    <path class="fil0" d="M3764.06 7387.7c0,0 -350.88,204.05 249.71,273.09 727.58,83.01 1099.44,71.1 1901.25,-80.65 0,0 210.8,132.18 505.2,246.66 -1797.44,770.35 -4067.95,-44.62 -2656.16,-439.1l0 0zm-219.64 -1005.26c0,0 -393.54,291.31 207.49,353.48 777.23,80.18 1391.02,86.74 2453.13,-117.78 0,0 146.92,148.94 377.92,230.38 -2173.23,635.47 -4593.79,50.11 -3038.54,-466.08z"/>
   </g>
   <g>
    <path class="fil1" d="M5396.03 4677.19c442.89,509.91 -116.34,968.78 -116.34,968.78 0,0 1124.52,-580.53 608.08,-1307.5 -482.36,-677.96 -852.27,-1014.78 1150.25,-2176.17 0.03,-0.03 -3143.29,785.02 -1641.99,2514.9l0 -0.01zm0 0l0 0 0 0z"/>
   </g>
   <g>
    <path class="fil0" d="M7773.28 8131.25c0,0 259.66,213.97 -285.96,379.46 -1037.5,314.29 -4318.2,409.2 -5229.56,12.54 -327.61,-142.54 286.75,-340.33 480.01,-381.83 201.55,-43.71 316.72,-35.56 316.72,-35.56 -364.34,-256.66 -2354.93,503.94 -1011.12,721.79 3664.76,594.32 6680.53,-267.62 5729.91,-696.4l0 0zm-3840.49 -2790.37c0,0 -1668.77,396.36 -590.95,540.3 455.09,60.92 1362.29,47.14 2207.31,-23.66 690.61,-58.26 1384.09,-182.1 1384.09,-182.1 0,0 -243.52,104.29 -419.7,224.56 -1694.6,445.71 -4968.27,238.35 -4025.82,-217.53 797.02,-385.27 1445.07,-341.57 1445.07,-341.57l0 0zm2993.57 1673.3c1722.65,-895.15 926.19,-1755.41 370.23,-1639.49 -136.26,28.36 -197.02,52.93 -197.02,52.93 0,0 50.61,-79.24 147.18,-113.54 1099.81,-386.66 1945.65,1140.41 -355.03,1745.24 0,0 26.7,-23.81 34.64,-45.14l0 0zm0 0l0 0 0 0z"/>
   </g>
   <g>
    <path class="fil1" d="M5887.77 286.93c0,0 954.03,954.33 -904.86,2421.87 -1490.63,1177.18 -339.91,1848.39 -0.61,2615.3 -870.09,-785.07 -1508.63,-1476.13 -1080.25,-2119.33 628.75,-944.15 2370.65,-1401.91 1985.72,-2917.84l0 0zm0 0l0 0 0 0z"/>
   </g>
   <g>
    <path class="fil0" d="M4102.07 9439.84c1653.52,105.84 4192.7,-58.73 4252.81,-841.11 0,0 -115.57,296.58 -1366.55,532.16 -1411.29,265.57 -3151.98,234.58 -4184.39,64.37 0.05,-0.05 211.37,174.89 1298.13,244.58l0 0zm0 0l0 0 0 0z"/>
   </g>
  </g>
 </g>
</svg>
