<?xml version="1.0" encoding="UTF-8"?>
<!DOCTYPE svg PUBLIC "-//W3C//DTD SVG 1.1//EN" "http://www.w3.org/Graphics/SVG/1.1/DTD/svg11.dtd">
<!-- Creator: CorelDRAW 2020 (64-Bit) -->
<svg xmlns="http://www.w3.org/2000/svg" xml:space="preserve" width="100mm" height="100mm" version="1.1" style="shape-rendering:geometricPrecision; text-rendering:geometricPrecision; image-rendering:optimizeQuality; fill-rule:evenodd; clip-rule:evenodd"
viewBox="0 0 10000 10000"
 xmlns:xlink="http://www.w3.org/1999/xlink"
 xmlns:xodm="http://www.corel.com/coreldraw/odm/2003">
 <defs>
  <style type="text/css">
   <![CDATA[
    .fil0 {fill:#A19273;fill-rule:nonzero}
   ]]>
  </style>
 </defs>
 <g id="Ebene_x0020_1">
  <metadata id="CorelCorpID_0Corel-Layer"/>
  <g id="_2436107033072">
   <g id="_2436030498144">
    <g>
     <path class="fil0" d="M113.43 800c0,-388.14 324.95,-703.2 725.52,-703.2l8365.72 0c400.72,0 725.52,315.06 725.52,703.2l0 8410.47c0,388.26 -324.8,703.09 -725.52,703.09l-8365.72 0c-400.53,0 -725.52,-314.79 -725.52,-702.97l0 -8410.7 0 0.11zm2983.22 7512.12l0 -4419.53 -1468.98 0 0 4419.53 1469.14 0 -0.16 0zm-734.18 -5022.84c512.16,0 831.01,-339.37 831.01,-763.48 -9.59,-433.78 -318.85,-763.68 -821.27,-763.68 -502.77,0 -831.13,329.9 -831.13,763.64 0,424.12 318.74,763.48 811.76,763.48l9.51 0 0.12 0.04zm1547.29 5022.84l1468.86 0 0 -2467.8c0,-131.92 9.59,-264.17 48.39,-358.39 106.15,-264.02 347.85,-537.31 753.75,-537.31 531.41,0 744.12,405.24 744.12,999.43l0 2364.07 1468.83 0 0 -2534.03c0,-1357.42 -724.6,-1989.11 -1691.05,-1989.11 -792.36,0 -1140.36,442.87 -1333.7,744.5l9.78 0 0 -640.73 -1468.9 0c19.17,414.6 -0.12,4419.53 -0.12,4419.53l0.04 -0.16z"/>
    </g>
   </g>
  </g>
 </g>
</svg>
