<?xml version="1.0" encoding="UTF-8"?>
<!DOCTYPE svg PUBLIC "-//W3C//DTD SVG 1.1//EN" "http://www.w3.org/Graphics/SVG/1.1/DTD/svg11.dtd">
<!-- Creator: CorelDRAW 2020 (64-Bit) -->
<svg xmlns="http://www.w3.org/2000/svg" xml:space="preserve" width="100mm" height="100mm" version="1.1" style="shape-rendering:geometricPrecision; text-rendering:geometricPrecision; image-rendering:optimizeQuality; fill-rule:evenodd; clip-rule:evenodd"
viewBox="0 0 10000 10000"
 xmlns:xlink="http://www.w3.org/1999/xlink"
 xmlns:xodm="http://www.corel.com/coreldraw/odm/2003">
 <defs>
  <style type="text/css">
   <![CDATA[
    .fil1 {fill:#735F3F;fill-rule:nonzero}
    .fil0 {fill:#857151;fill-rule:nonzero}
    .fil2 {fill:#918160;fill-rule:nonzero}
    .fil3 {fill:#A19273;fill-rule:nonzero}
   ]]>
  </style>
 </defs>
 <g id="Ebene_x0020_1">
  <metadata id="CorelCorpID_0Corel-Layer"/>
  <path class="fil0" d="M2847.26 8687.29l-600 -1810.32c67.68,-71.04 135.65,-145.41 203.89,-223.11l54.46 17.37c56.95,18.29 102.53,33.16 137.2,44.71l122.12 41.48c35.11,11.96 67.27,23.11 96.42,33.41 30.07,10.6 63.95,23.02 101.6,37.23 36.17,13.66 83.02,31.73 140.41,54.14 59.38,23.18 103.96,40.78 133.88,52.82 23.63,9.5 43.18,17.49 58.65,23.96l396.8 1213.37 -514.97 0 375.33 -1105 47.96 19.95 186.37 76.96c56.83,23.4 94.84,38.94 114.51,46.82l0.06 -0.15c51.14,21.61 103.66,43.57 157.32,65.77 32.37,13.39 99.99,41.11 206.69,84.7 43.06,17.59 18.32,7.54 87.84,36.05l-438.21 1289.84 -1068.33 0zm-963.95 -2908.43l-819.17 -2471.64 1037.59 0 618.51 1891.38c-142.11,235.4 -290.37,458.05 -444.77,667.91l-87.46 -24.16c-14.65,-3.66 6.64,1.79 -31.93,-7.55l-52.17 -12.59 -0.55 0c-23.26,-5.57 -42.06,-9.96 -56.26,-13.11 -16.66,-3.69 -30.68,-6.59 -41.98,-8.64 -76.52,-13.94 2.1,-0.16 -35.76,-6.85l-50.85 -8.8c-13.06,-2.27 -24.8,-4.25 -35.2,-5.95zm1090.45 195.01l39.25 120.03 -99.43 -33.13c20.13,-28.7 40.19,-57.67 60.18,-86.9zm808.54 418.59l1003.45 -2954.36c44.47,-41.72 88.25,-85.35 131.32,-130.88l835.42 0 1606.31 4865.13 -499.54 0 1629.38 -4865.13 953.04 0 -1783.11 5380.07 -1060.64 0 -341.77 -1021.7c4.95,-4.15 9.85,-8.39 14.69,-12.71l47.4 -42.33 0 -3.75c11.57,-10.41 21.8,-20.26 30.65,-29.54 14.52,-15.22 26.6,-30.04 36.17,-44.44l-0.13 -0.08c9.71,-14.61 18.22,-30.34 25.54,-47.19 7.25,-16.68 13.26,-33.27 17.89,-49.71 8.75,-29.58 13.11,-57.34 13.11,-83.2 0,-36.28 -8.38,-69.79 -25.19,-100.58 -16.44,-30.14 -38.79,-54.39 -66.97,-72.71 -25.92,-16.85 -54.91,-27.62 -86.94,-32.2 -19.45,-2.76 -37.62,-4.16 -54.44,-4.16 -18.11,0 -36.21,1.4 -54.25,4.16 -8.46,1.3 -20.85,3.37 -37.58,6.26l-29.45 5.44 -956.74 -2860.15 276.72 0 -823.4 2423.52c-103.38,-41.97 -216.45,-88.28 -339.16,-138.94 -51.44,-21.75 -102.81,-43.25 -154.02,-64.46 -29.69,-12.3 -96.36,-39.65 -198.56,-81.45l-109.2 -44.91z"/>
  <path class="fil1" d="M2847.26 8687.29l-7.29 -21.99 521.72 -1505.12 331 1012.17 -514.97 0 375.33 -1105 47.96 19.95 186.37 76.96c56.83,23.4 94.84,38.94 114.51,46.82l0.06 -0.15c51.14,21.61 103.66,43.57 157.32,65.77 32.37,13.39 99.99,41.11 206.69,84.7 43.06,17.59 18.32,7.54 87.84,36.05l-438.21 1289.84 -1068.33 0zm935.04 -2294.83l1003.45 -2954.36c44.47,-41.72 88.25,-85.35 131.32,-130.88l835.42 0 1606.31 4865.13 -499.54 0 1629.38 -4865.13 953.04 0 -1783.11 5380.07 -1060.64 0 -341.77 -1021.7c4.95,-4.15 9.85,-8.39 14.69,-12.71l47.4 -42.33 0 -3.75c11.57,-10.41 21.8,-20.26 30.65,-29.54 14.52,-15.22 26.6,-30.04 36.17,-44.44l-0.13 -0.08c9.71,-14.61 18.22,-30.34 25.54,-47.19 7.25,-16.68 13.26,-33.27 17.89,-49.71 8.75,-29.58 13.11,-57.34 13.11,-83.2 0,-36.28 -8.38,-69.79 -25.19,-100.58 -16.44,-30.14 -38.79,-54.39 -66.97,-72.71 -25.92,-16.85 -54.91,-27.62 -86.94,-32.2 -19.45,-2.76 -37.62,-4.16 -54.44,-4.16 -18.11,0 -36.21,1.4 -54.25,4.16 -8.46,1.3 -20.85,3.37 -37.58,6.26l-29.45 5.44 -956.74 -2860.15 276.72 0 -823.4 2423.52c-103.38,-41.97 -216.45,-88.28 -339.16,-138.94 -51.44,-21.75 -102.81,-43.25 -154.02,-64.46 -29.69,-12.3 -96.36,-39.65 -198.56,-81.45l-109.2 -44.91z"/>
  <path class="fil2" d="M1633.42 5916.2c36.89,0 74.61,0.86 113.16,2.53 38.55,1.66 72.08,4.19 100.59,7.54 28.48,3.36 62.01,8.38 100.56,15.09 38.55,6.71 67.07,11.73 85.51,15.09 18.44,3.35 48.62,10.06 90.52,20.1 41.91,10.07 69.56,16.78 82.99,20.14 13.39,3.36 43.56,11.73 90.52,25.13 46.93,13.42 75.44,21.8 85.51,25.15 422.45,-559.9 801.3,-1213.71 1136.58,-1961.37 -70.42,23.46 -152.57,46.95 -246.45,70.42 -93.85,20.1 -155.9,-5.89 -186.07,-77.97 -30.18,-72.08 -10.07,-146.68 60.35,-223.78 40.24,-40.25 83.81,-65.4 130.77,-75.44l130.74 -30.18c120.7,-30.17 217.93,-58.68 291.71,-85.5 26.82,-80.46 50.28,-139.15 70.39,-176 439.23,-1103.08 833.16,-1817.22 1181.87,-2142.43 157.56,-137.48 300.06,-201.18 427.47,-191.12 46.92,6.72 88.86,21.8 125.72,45.27 87.17,53.63 137.48,153.4 150.87,299.22 13.43,145.86 -5.02,302.61 -55.3,470.24 -77.13,278.29 -200.32,544.81 -369.64,799.64 -169.32,254.79 -357.91,472.73 -565.78,653.78 -207.87,181.05 -429.16,331.92 -663.85,452.62 -382.24,895.18 -803,1654.61 -1262.33,2278.21 113.98,36.89 216.24,70.42 306.77,100.6 90.52,30.17 186.93,65.37 289.18,105.61 102.26,40.21 183.58,72.91 243.93,98.07 60.35,25.12 164.27,67.89 311.79,128.24 147.54,60.35 264.89,108.97 352.06,145.83 405.67,167.65 690.67,281.64 854.94,341.99 271.57,103.92 496.22,170.98 673.91,201.16 160.95,33.53 271.58,50.31 331.93,50.31 6.71,0 23.46,-2.52 50.28,-7.54 26.82,-5.05 51.14,-9.24 72.94,-12.6 21.77,-3.35 44.4,-3.35 67.9,0 23.46,3.36 40.21,14.26 50.28,32.7 10.07,18.45 10.07,44.43 0,77.96 -6.71,23.47 -15.09,42.74 -25.16,57.83 -10.04,15.09 -27.65,33.53 -52.8,55.33 -25.13,21.77 -37.72,34.36 -37.72,37.72 -93.88,83.81 -214.58,125.72 -362.1,125.72 -140.81,0 -343.66,-38.55 -608.52,-115.68 -113.99,-33.53 -222.96,-68.73 -326.91,-105.61 -103.92,-36.89 -184.4,-67.07 -241.4,-90.53 -56.99,-23.46 -163.43,-67.06 -319.33,-130.74 -155.92,-63.7 -277.45,-114.02 -364.62,-150.87 -50.29,-20.14 -150.05,-61.21 -299.23,-123.23 -149.21,-62.01 -243.09,-101.42 -281.64,-118.17 -38.55,-16.78 -111.47,-46.13 -218.77,-88.03 -107.28,-41.91 -189.43,-72.92 -246.42,-93.02 -56.99,-20.14 -130.77,-45.27 -221.29,-75.44 -90.53,-30.18 -184.41,-60.35 -281.62,-90.53 -325.24,378.86 -643.74,680.61 -955.56,905.25 -315.14,231.34 -606.85,347.02 -875.07,347.02 -214.58,0 -366.29,-67.9 -455.12,-203.68 -88.86,-135.79 -103.12,-310.99 -42.77,-525.57 36.89,-150.88 110.66,-311.79 221.29,-482.8 127.42,-197.8 305.94,-352.86 535.61,-465.19 229.67,-112.32 478.61,-168.49 746.83,-168.49zm3741.7 -4204.36c3.36,-56.99 0.83,-100.59 -7.54,-130.77 -8.41,-30.17 -17.62,-46.92 -27.68,-50.28 -10.04,-3.36 -23.47,-6.71 -40.22,-10.07 -6.71,0 -14.25,0.86 -22.63,2.53 -8.4,1.66 -15.09,4.18 -20.14,7.54 -5.01,3.36 -11.73,8.38 -20.1,15.09 -8.38,6.71 -15.09,12.56 -20.11,17.61 -5.05,5.02 -10.9,10.9 -17.61,17.58 -6.71,6.71 -10.07,11.73 -10.07,15.09 -113.99,110.66 -263.17,326.91 -447.58,648.76 -167.65,295.04 -352.06,685.65 -553.21,1171.81 124.05,-83.81 254.82,-183.58 392.27,-299.23 137.45,-115.68 239.74,-215.44 306.77,-299.25 214.58,-274.93 362.1,-561.6 442.59,-859.99 23.46,-90.52 38.55,-172.64 45.26,-246.42zm-4978.87 5320.84c-33.54,117.34 -31.84,208.73 5.01,274.1 36.89,65.37 110.67,98.07 221.3,98.07 113.99,0 251.47,-38.55 412.38,-115.68 331.92,-164.27 683.99,-459.31 1056.12,-885.12 -184.4,-46.95 -377.18,-82.15 -578.34,-105.61 -211.22,-23.49 -399.82,0 -565.78,70.39 -165.96,70.42 -294.21,174.37 -384.73,311.82 -83.81,127.41 -139.15,244.75 -165.96,352.03z"/>
  <path class="fil3" d="M1633.42 5916.2c36.89,0 74.61,0.86 113.16,2.53 38.55,1.66 72.08,4.19 100.59,7.54 28.48,3.36 62.01,8.38 100.56,15.09 38.55,6.71 67.07,11.73 85.51,15.09 18.44,3.35 48.62,10.06 90.52,20.1 41.91,10.07 69.56,16.78 82.99,20.14 13.39,3.36 43.56,11.73 90.52,25.13 46.93,13.42 75.44,21.8 85.51,25.15 422.45,-559.9 801.3,-1213.71 1136.58,-1961.37 -70.42,23.46 -152.57,46.95 -246.45,70.42 -93.85,20.1 -155.9,-5.89 -186.07,-77.97 -30.18,-72.08 -10.07,-146.68 60.35,-223.78 40.24,-40.25 83.81,-65.4 130.77,-75.44l130.74 -30.18c120.7,-30.17 217.93,-58.68 291.71,-85.5 26.82,-80.46 50.28,-139.15 70.39,-176 439.23,-1103.08 833.16,-1817.22 1181.87,-2142.43 157.56,-137.48 300.06,-201.18 427.47,-191.12 13.6,1.95 26.79,4.6 39.55,7.95l-124.54 359.29c-5.53,0.3 -11.56,1.11 -18.1,2.41 -8.4,1.66 -15.09,4.18 -20.14,7.54 -5.01,3.36 -11.73,8.38 -20.1,15.09 -8.38,6.71 -15.09,12.56 -20.11,17.61 -5.05,5.02 -10.9,10.9 -17.61,17.58 -6.71,6.71 -10.07,11.73 -10.07,15.09 -113.99,110.66 -263.17,326.91 -447.58,648.76 -167.65,295.04 -352.06,685.65 -553.21,1171.81 124.05,-83.81 254.82,-183.58 392.27,-299.23 96.52,-81.23 175.7,-154.61 237.51,-220.13l-194.36 560.69c-195.51,165.01 -402.67,303.77 -621.49,416.31 -382.24,895.18 -803,1654.61 -1262.33,2278.21 113.98,36.89 216.24,70.42 306.77,100.6 90.52,30.17 186.93,65.37 289.18,105.61 102.26,40.21 183.58,72.91 243.93,98.07l3.91 1.63 -140.53 405.42 -16.78 -7.23c-38.55,-16.78 -111.47,-46.13 -218.77,-88.03 -107.28,-41.91 -189.43,-72.92 -246.42,-93.02 -56.99,-20.14 -130.77,-45.27 -221.29,-75.44 -90.53,-30.18 -184.41,-60.35 -281.62,-90.53 -325.24,378.86 -643.74,680.61 -955.56,905.25 -315.14,231.34 -606.85,347.02 -875.07,347.02 -214.58,0 -366.29,-67.9 -455.12,-203.68 -88.86,-135.79 -103.12,-310.99 -42.77,-525.57 36.89,-150.88 110.66,-311.79 221.29,-482.8 127.42,-197.8 305.94,-352.86 535.61,-465.19 229.67,-112.32 478.61,-168.49 746.83,-168.49zm-1237.17 1116.48c-33.54,117.34 -31.84,208.73 5.01,274.1 36.89,65.37 110.67,98.07 221.3,98.07 113.99,0 251.47,-38.55 412.38,-115.68 331.92,-164.27 683.99,-459.31 1056.12,-885.12 -184.4,-46.95 -377.18,-82.15 -578.34,-105.61 -211.22,-23.49 -399.82,0 -565.78,70.39 -165.96,70.42 -294.21,174.37 -384.73,311.82 -83.81,127.41 -139.15,244.75 -165.96,352.03z"/>
 </g>
</svg>
