<?xml version="1.0" encoding="UTF-8"?>
<!DOCTYPE svg PUBLIC "-//W3C//DTD SVG 1.1//EN" "http://www.w3.org/Graphics/SVG/1.1/DTD/svg11.dtd">
<!-- Creator: CorelDRAW 2020 (64-Bit) -->
<svg xmlns="http://www.w3.org/2000/svg" xml:space="preserve" width="100mm" height="100mm" version="1.1" style="shape-rendering:geometricPrecision; text-rendering:geometricPrecision; image-rendering:optimizeQuality; fill-rule:evenodd; clip-rule:evenodd"
viewBox="0 0 10000 10000"
 xmlns:xlink="http://www.w3.org/1999/xlink"
 xmlns:xodm="http://www.corel.com/coreldraw/odm/2003">
 <defs>
  <style type="text/css">
   <![CDATA[
    .fil3 {fill:#615743}
    .fil2 {fill:#685E4A}
    .fil0 {fill:#A19273}
    .fil1 {fill:#B8AA8D}
   ]]>
  </style>
 </defs>
 <g id="Ebene_x0020_1">
  <metadata id="CorelCorpID_0Corel-Layer"/>
  <path class="fil0" d="M6213.36 5816.29l274.96 -1415.14c62.07,-319.4 10.45,-557.62 -153.3,-708.17 -158.66,-145.66 -427.99,-216.51 -823.33,-216.51l-476.19 0 136.21 -701.14c1.11,-5.69 1.67,-11.49 1.67,-17.29 0,-49.74 -40.34,-90.09 -90.08,-90.09l-657.23 0c-43.17,0 -80.24,30.64 -88.48,73l-292.05 1502.35c-26.55,-169.05 -91.97,-314.37 -196.67,-434.29 -192.78,-220.67 -497.7,-332.54 -906.38,-332.54l-1273.84 0c-43.17,0 -80.24,30.63 -88.48,72.93l-591.01 3041.02c-5.16,26.48 1.74,53.7 18.9,74.47 17.1,20.85 42.57,32.85 69.58,32.85l662.39 0c43.17,0 80.24,-30.63 88.48,-73.06l142.98 -735.53 493.07 0c258.74,0 476.18,-28.01 645.9,-83.25 173.54,-56.44 333.28,-152.15 474.04,-283.94 113.75,-104.5 207.73,-221.53 280.05,-347.75l-118.04 607.56c-5.16,26.48 1.75,53.83 18.91,74.47 17.09,20.85 42.63,32.85 69.57,32.85l657.24 0c43.16,0 80.23,-30.64 88.48,-72.93l324.35 -1669.25 450.98 0c192.18,0 248.48,38.27 263.83,54.69 13.88,15.02 42.7,67.9 10.33,234.61l-261.42 1345.49c-1.07,5.6 -1.62,11.32 -1.62,17.03 0,49.79 40.31,90.19 90.1,90.29l667.69 0c0.05,0 0.12,0 0.17,0 43.02,0 80.03,-30.51 88.24,-72.72l0 -0.01zm-3135.47 -1096.54c-41.29,212.15 -119.05,363.43 -231.26,449.7 -113.95,87.88 -296.2,132.39 -541.74,132.39l-293.59 0 212.29 -1092.46 379.59 0c278.85,0 391.19,59.59 436.3,109.53 62.54,69.31 75.81,207.99 38.41,400.84l0 0zm5815.47 -838.01c-192.71,-220.67 -497.63,-332.54 -906.32,-332.54l-1273.84 0c-43.23,0 -80.23,30.63 -88.48,72.93l-590.94 3041.02c-5.23,26.48 1.68,53.69 18.84,74.47 17.16,20.78 42.7,32.85 69.51,32.85l662.46 0c43.23,0 80.23,-30.64 88.48,-73.07l142.98 -735.52 493.14 0c258.8,0 476.04,-28.02 645.83,-83.25 173.61,-56.44 333.34,-152.16 474.04,-283.94 117.43,-107.85 214.02,-229.11 287.22,-360.02 73.2,-130.91 125.68,-276.9 156.32,-434.02 75.27,-387.5 15.01,-696.64 -179.24,-918.91zm-644.9 838.01c-41.36,212.15 -119.11,363.43 -231.19,449.7 -114.01,87.88 -296.27,132.39 -541.73,132.39l-293.66 0 212.21 -1092.46 379.66 0c278.85,0 391.19,59.59 436.37,109.53 62.41,69.31 75.74,207.99 38.34,400.84l0 0z"/>
  <path class="fil1" d="M6213.36 5816.3l150.51 -774.59 868.54 0 -50.53 260.13 293.65 0c245.48,0 427.73,-44.51 541.74,-132.4 42.99,-33.08 80.93,-75.76 113.69,-127.73l874.22 0c-25.05,67.35 -54.71,131.79 -88.89,192.96 -73.21,130.91 -169.8,252.16 -287.23,360.03 -140.69,131.77 -300.44,227.48 -474.04,283.92 -169.79,55.23 -387.03,83.27 -645.83,83.27l-493.14 0 -142.98 735.51c-8.24,42.44 -45.24,73.06 -88.48,73.06l-662.46 0c-26.8,0 -52.34,-12.06 -69.51,-32.84 -17.16,-20.78 -24.06,-47.99 -18.84,-74.47l315.09 -1621.44 -836.31 0 -143.77 739.99c-1.08,5.6 -1.62,11.32 -1.62,17.04 0,49.78 40.3,90.19 90.1,90.29l667.68 0c0.06,0 0.12,0 0.18,0 43,0 80.03,-30.53 88.23,-72.73l0 0zm-4923.2 -774.59l-300.99 1548.72c-5.16,26.48 1.74,53.68 18.88,74.46 17.1,20.84 42.59,32.85 69.59,32.85l662.39 0c43.17,0 80.25,-30.63 88.49,-73.07l142.97 -735.52 493.07 0c258.74,0 476.18,-28.01 645.91,-83.25 173.54,-56.45 333.27,-152.15 474.04,-283.93 113.73,-104.5 207.72,-221.53 280.05,-347.77l-118.05 607.58c-5.16,26.46 1.74,53.82 18.9,74.46 17.1,20.84 42.64,32.85 69.58,32.85l657.24 0c43.16,0 80.23,-30.63 88.47,-72.93l150.49 -774.45 -1770.77 0c-32.78,51.97 -70.75,94.65 -113.79,127.73 -113.95,87.89 -296.21,132.4 -541.75,132.4l-293.58 0 50.54 -260.13 -771.68 0z"/>
  <path class="fil2" d="M2691.59 4046.49c251.63,0 419.41,46.46 503.26,139.36 83.79,92.91 103.77,252.44 59.93,478.4 -45.85,235.34 -134.06,403.31 -264.77,504 -130.71,100.68 -329.65,150.95 -596.7,150.95l-402.99 0 247.34 -1272.71 453.93 0zm-1614.02 2561.09l662.4 0 157.18 -808.45 567.41 0c250.36,0 456.34,-26.34 618.02,-78.96 161.68,-52.62 308.67,-140.76 440.92,-264.57 111.01,-101.95 200.83,-214.56 269.6,-337.63 68.71,-123.07 117.5,-258.8 146.39,-407.27 70.12,-360.49 17.23,-641.28 -158.52,-842.37 -175.69,-201.16 -455.27,-301.7 -838.48,-301.7l-1273.84 0 -591.08 3040.95zm3348.43 -3849.47l657.23 0 -157.12 808.52 585.58 0c368.26,0 622.5,64.21 762.33,192.71 139.83,128.49 181.72,336.76 125.82,624.65l-274.96 1415.14 -667.69 0 261.42 -1345.56c29.69,-153.1 18.83,-257.46 -32.85,-313.17 -51.68,-55.63 -161.67,-83.52 -329.79,-83.52l-525.24 0 -338.57 1742.25 -657.23 0 591.07 -3041.02zm3436.17 1288.38c251.63,0 419.34,46.46 503.26,139.36 83.79,92.91 103.69,252.44 59.86,478.4 -45.72,235.34 -133.93,403.31 -264.71,504 -130.64,100.67 -329.65,150.95 -596.56,150.95l-402.99 0 247.28 -1272.71 453.86 0zm-1614.16 2561.09l662.46 0 157.12 -808.45 567.41 0c250.43,0 456.41,-26.34 618.09,-78.96 161.67,-52.62 308.67,-140.76 440.92,-264.57 111,-101.95 200.82,-214.56 269.53,-337.63 68.71,-123.07 117.57,-258.8 146.53,-407.27 70.04,-360.49 17.16,-641.28 -158.53,-842.37 -175.82,-201.16 -455.34,-301.7 -838.55,-301.7l-1273.84 0 -591.14 3040.95z"/>
  <path class="fil3" d="M3108.91 5041.71c-34.7,50.01 -74.32,92.19 -118.91,126.53 -130.71,100.69 -329.65,150.96 -596.69,150.96l-402.99 0 53.92 -277.49 -662.3 0 -304.36 1565.88 662.37 0 157.2 -808.45 567.41 0c250.36,0 456.34,-26.34 618.03,-78.97 161.67,-52.62 308.67,-140.75 440.92,-264.56 110.99,-101.95 200.81,-214.58 269.6,-337.63 13.9,-24.9 26.98,-50.32 39.26,-76.27l-723.46 0zm873.24 0l657.19 0 -147.19 757.43 -657.22 0 147.22 -757.43zm1622.2 0l667.69 0 -147.17 757.43 -667.68 0 147.16 -757.43zm948.06 0l662.53 0 -53.9 277.49 402.97 0c266.93,0 465.92,-50.29 596.57,-150.96 44.61,-34.34 84.25,-76.52 118.95,-126.53l723.27 0c-12.28,25.95 -25.37,51.37 -39.27,76.27 -68.7,123.05 -158.51,235.68 -269.52,337.63 -132.25,123.81 -279.24,211.94 -440.92,264.56 -161.67,52.63 -367.67,78.97 -618.09,78.97l-567.41 0 -157.11 808.45 -662.46 0 304.39 -1565.88z"/>
 </g>
</svg>
