<?xml version="1.0" encoding="UTF-8"?>
<!DOCTYPE svg PUBLIC "-//W3C//DTD SVG 1.1//EN" "http://www.w3.org/Graphics/SVG/1.1/DTD/svg11.dtd">
<!-- Creator: CorelDRAW 2020 (64-Bit) -->
<svg xmlns="http://www.w3.org/2000/svg" xml:space="preserve" width="100mm" height="100mm" version="1.1" style="shape-rendering:geometricPrecision; text-rendering:geometricPrecision; image-rendering:optimizeQuality; fill-rule:evenodd; clip-rule:evenodd"
viewBox="0 0 10000 10000"
 xmlns:xlink="http://www.w3.org/1999/xlink"
 xmlns:xodm="http://www.corel.com/coreldraw/odm/2003">
 <defs>
  <style type="text/css">
   <![CDATA[
    .fil0 {fill:#685E4A;fill-rule:nonzero}
    .fil1 {fill:#A19273;fill-rule:nonzero}
   ]]>
  </style>
 </defs>
 <g id="Ebene_x0020_1">
  <metadata id="CorelCorpID_0Corel-Layer"/>
  <g id="_2436101367488">
   <path class="fil0" d="M4956.78 236.4c-2429.38,0 -2277.69,1053.52 -2277.69,1053.52l2.7 1091.48 2318.3 0 0 327.69 -3239.1 0c0,0 -1554.55,-176.31 -1554.55,2274.91 0,2451.29 1356.85,2364.36 1356.85,2364.36l809.77 0 0 -1137.5c0,0 -43.66,-1356.85 1335.19,-1356.85l2299.35 0c0,0 1291.84,20.87 1291.84,-1248.52l0 -2098.87c0,0 196.2,-1270.22 -2342.66,-1270.22zm-1278.32 734c0.13,0 0.28,0 0.38,0 230.09,0 416.69,186.59 416.69,416.68 0,0.1 0,0.26 0,0.36 0,0.14 0,0.29 0,0.39 0,230.09 -186.6,416.69 -416.69,416.69 -0.1,0 -0.25,0 -0.36,0 -0.14,0 -0.29,0 -0.39,0 -230.09,0 -416.69,-186.6 -416.69,-416.69 0,-0.1 0,-0.25 0,-0.35 0,-0.14 0,-0.3 0,-0.4 0,-230.09 186.6,-416.68 416.69,-416.68 0.1,0 0.25,0 0.36,0l0.01 0z"/>
   <path class="fil1" d="M5025.76 9756.26c2429.37,0 2277.68,-1053.52 2277.68,-1053.52l-2.69 -1091.44 -2318.35 0 0 -327.69 3239.1 0c0,0 1554.56,176.3 1554.56,-2274.99 0,-2451.26 -1356.86,-2364.32 -1356.86,-2364.32l-809.76 0 0 1137.45c0,0 43.66,1356.86 -1335.2,1356.86l-2299.34 0c0,0 -1291.84,-20.87 -1291.84,1248.56l0 2098.9c0,0 -196.16,1270.19 2342.66,1270.19l0.04 0zm1278.31 -733.93c-0.12,0 -0.27,0 -0.37,0 -230.09,0 -416.69,-186.59 -416.69,-416.68 0,-0.1 0,-0.26 0,-0.36 0,-0.12 0,-0.33 0,-0.43 0,-230.09 186.6,-416.69 416.69,-416.69 0.1,0 0.25,0 0.35,0 0.14,0 0.3,0 0.4,0 230.09,0 416.68,186.6 416.68,416.69 0,0.1 0,0.25 0,0.36 0,0.14 0,0.29 0,0.39 0,230.09 -186.59,416.69 -416.68,416.69 -0.1,0 -0.26,0 -0.36,0l-0.02 0.03z"/>
  </g>
 </g>
</svg>
